<?xml version="1.0"?>
<!DOCTYPE svg PUBLIC "-//W3C//DTD SVG 1.1//EN" "http://www.w3.org/Graphics/SVG/1.1/DTD/svg11.dtd">
<svg width="84.42915292359169mm" height="130.19700031813832mm" viewBox="-0.000000 -0.297171 84.429153 130.197000" xmlns="http://www.w3.org/2000/svg" version="1.1">
<g id="Shape2DView001" transform="scale(1,-1)">
<path id="Shape2DView001_nwe0000"  d="M 7.449631140316911 0.028758470083789574 L 76.97952178327476 0.29717085753249234 " stroke="#191919" stroke-width="0.35 px" style="stroke-width:0.35;stroke-miterlimit:4;stroke-dasharray:none;stroke-linecap:square;fill:none;fill-opacity:1;fill-rule: evenodd"/>
<path id="Shape2DView001_nwe0001"  d="M 7.449631140316912 0.028758470083791288 A 7.5 7.44554 -105.882 0 1 -8.88178e-16 -7.49588" stroke="#191919" stroke-width="0.35 px" style="stroke-width:0.35;stroke-miterlimit:4;stroke-dasharray:none;stroke-linecap:square;fill:none;fill-opacity:1;fill-rule: evenodd"/>
<path id="Shape2DView001_nwe0002"  d="M 76.97952178327476 0.2971708575324943 A 7.5 7.44554 74.1181 0 0 84.4292 -7.16995" stroke="#191919" stroke-width="0.35 px" style="stroke-width:0.35;stroke-miterlimit:4;stroke-dasharray:none;stroke-linecap:square;fill:none;fill-opacity:1;fill-rule: evenodd"/>
<path id="Shape2DView001_nwe0003"  d="M -6.505213034913024e-18 -7.495880072924398 L -1.0625181290357943e-16 -122.43270785776521 " stroke="#191919" stroke-width="0.35 px" style="stroke-width:0.35;stroke-miterlimit:4;stroke-dasharray:none;stroke-linecap:square;fill:none;fill-opacity:1;fill-rule: evenodd"/>
<path id="Shape2DView001_nwe0004"  d="M 84.42915292359169 -7.169950745308116 L 84.42915292359169 -122.10677853014893 " stroke="#191919" stroke-width="0.35 px" style="stroke-width:0.35;stroke-miterlimit:4;stroke-dasharray:none;stroke-linecap:square;fill:none;fill-opacity:1;fill-rule: evenodd"/>
<path id="Shape2DView001_nwe0005"  d="M -8.881784197001252e-16 -122.43270785776521 A 7.5 7.44554 -105.882 0 1 7.44963 -129.9" stroke="#191919" stroke-width="0.35 px" style="stroke-width:0.35;stroke-miterlimit:4;stroke-dasharray:none;stroke-linecap:square;fill:none;fill-opacity:1;fill-rule: evenodd"/>
<path id="Shape2DView001_nwe0006"  d="M 84.42915292359167 -122.10677853014893 A 7.5 7.44554 74.1181 0 0 76.9795 -129.631" stroke="#191919" stroke-width="0.35 px" style="stroke-width:0.35;stroke-miterlimit:4;stroke-dasharray:none;stroke-linecap:square;fill:none;fill-opacity:1;fill-rule: evenodd"/>
<path id="Shape2DView001_nwe0007"  d="M 7.44963114031691 -129.89982946060582 L 76.97952178327476 -129.63141707315714 " stroke="#191919" stroke-width="0.35 px" style="stroke-width:0.35;stroke-miterlimit:4;stroke-dasharray:none;stroke-linecap:square;fill:none;fill-opacity:1;fill-rule: evenodd"/>
<path id="Shape2DView001_nwe0008"  d="M 6.606811493683201 -9.420765120763079 A 2.8 2.779667849296856 74.11805557373076 1 1 5.840574323199939 -9.315420491041174 A 2.8 2.779667849296856 74.11805557373076 1 1 6.606811493683201 -9.420765120763079 " stroke="#191919" stroke-width="0.35 px" style="stroke-width:0.35;stroke-miterlimit:4;stroke-dasharray:none;stroke-linecap:square;fill:none;fill-opacity:1;fill-rule: evenodd"/>
<path id="Shape2DView001_nwe0009"  d="M 6.606811493683201 -126.0537368800176 A 2.8 2.779667849296856 74.11805557373076 1 1 5.840574323199939 -125.9483922502957 A 2.8 2.779667849296856 74.11805557373076 1 1 6.606811493683201 -126.0537368800176 " stroke="#191919" stroke-width="0.35 px" style="stroke-width:0.35;stroke-miterlimit:4;stroke-dasharray:none;stroke-linecap:square;fill:none;fill-opacity:1;fill-rule: evenodd"/>
<path id="Shape2DView001_nwe0010"  d="M 77.82234142990848 -9.145845510839274 A 2.8 2.779667849296856 74.11805557373076 1 1 77.05610425942521 -9.040500881117367 A 2.8 2.779667849296856 74.11805557373076 1 1 77.82234142990848 -9.145845510839274 " stroke="#191919" stroke-width="0.35 px" style="stroke-width:0.35;stroke-miterlimit:4;stroke-dasharray:none;stroke-linecap:square;fill:none;fill-opacity:1;fill-rule: evenodd"/>
<path id="Shape2DView001_nwe0011"  d="M 13.767050426119729 -5.610407670285845 A 10 9.92739 74.1181 0 0 5.62861 -13.8308" stroke="#191919" stroke-width="0.35 px" style="stroke-width:0.35;stroke-miterlimit:4;stroke-dasharray:none;stroke-linecap:square;fill:none;fill-opacity:1;fill-rule: evenodd"/>
<path id="Shape2DView001_nwe0012"  d="M 13.76705042611973 -5.6104076702858405 A 2 1.98548 74.1181 0 0 15.7258 -3.93709" stroke="#191919" stroke-width="0.35 px" style="stroke-width:0.35;stroke-miterlimit:4;stroke-dasharray:none;stroke-linecap:square;fill:none;fill-opacity:1;fill-rule: evenodd"/>
<path id="Shape2DView001_nwe0013"  d="M 3.9731366081690167 -15.808124736439613 A 2 1.98548 74.1181 0 0 5.62861 -13.8308" stroke="#191919" stroke-width="0.35 px" style="stroke-width:0.35;stroke-miterlimit:4;stroke-dasharray:none;stroke-linecap:square;fill:none;fill-opacity:1;fill-rule: evenodd"/>
<path id="Shape2DView001_nwe0014"  d="M 68.7033197338818 -3.7325812029095746 L 15.725833189709881 -3.9370948805935035 " stroke="#191919" stroke-width="0.35 px" style="stroke-width:0.35;stroke-miterlimit:4;stroke-dasharray:none;stroke-linecap:square;fill:none;fill-opacity:1;fill-rule: evenodd"/>
<path id="Shape2DView001_nwe0015"  d="M 3.973136608169016 -15.808124736439613 L 3.973136608169016 -114.08978749282728 " stroke="#191919" stroke-width="0.35 px" style="stroke-width:0.35;stroke-miterlimit:4;stroke-dasharray:none;stroke-linecap:square;fill:none;fill-opacity:1;fill-rule: evenodd"/>
<path id="Shape2DView001_nwe0016"  d="M 68.7033197338818 -3.732581202909575 A 2 1.98548 74.1181 0 0 70.6621 -5.39077" stroke="#191919" stroke-width="0.35 px" style="stroke-width:0.35;stroke-miterlimit:4;stroke-dasharray:none;stroke-linecap:square;fill:none;fill-opacity:1;fill-rule: evenodd"/>
<path id="Shape2DView001_nwe0017"  d="M 5.628610194906109 -116.05434003529611 A 2 1.98548 74.1181 0 0 3.97314 -114.09" stroke="#191919" stroke-width="0.35 px" style="stroke-width:0.35;stroke-miterlimit:4;stroke-dasharray:none;stroke-linecap:square;fill:none;fill-opacity:1;fill-rule: evenodd"/>
<path id="Shape2DView001_nwe0018"  d="M 78.80054272868556 -13.548318567777219 A 10 9.92739 74.1181 0 0 70.6621 -5.39077" stroke="#191919" stroke-width="0.35 px" style="stroke-width:0.35;stroke-miterlimit:4;stroke-dasharray:none;stroke-linecap:square;fill:none;fill-opacity:1;fill-rule: evenodd"/>
<path id="Shape2DView001_nwe0019"  d="M 5.62861019490611 -116.0543400352961 A 10 9.92739 74.1181 0 0 13.7671 -124.212" stroke="#191919" stroke-width="0.35 px" style="stroke-width:0.35;stroke-miterlimit:4;stroke-dasharray:none;stroke-linecap:square;fill:none;fill-opacity:1;fill-rule: evenodd"/>
<path id="Shape2DView001_nwe0020"  d="M 78.80054272868557 -13.548318567777219 A 2 1.98548 74.1181 0 0 80.456 -15.5129" stroke="#191919" stroke-width="0.35 px" style="stroke-width:0.35;stroke-miterlimit:4;stroke-dasharray:none;stroke-linecap:square;fill:none;fill-opacity:1;fill-rule: evenodd"/>
<path id="Shape2DView001_nwe0021"  d="M 15.725833189709876 -125.87007740016375 A 2 1.98548 74.1181 0 0 13.7671 -124.212" stroke="#191919" stroke-width="0.35 px" style="stroke-width:0.35;stroke-miterlimit:4;stroke-dasharray:none;stroke-linecap:square;fill:none;fill-opacity:1;fill-rule: evenodd"/>
<path id="Shape2DView001_nwe0022"  d="M 80.45601631542266 -113.7945338666337 L 80.45601631542266 -15.512871110246024 " stroke="#191919" stroke-width="0.35 px" style="stroke-width:0.35;stroke-miterlimit:4;stroke-dasharray:none;stroke-linecap:square;fill:none;fill-opacity:1;fill-rule: evenodd"/>
<path id="Shape2DView001_nwe0023"  d="M 15.725833189709876 -125.87007740016375 L 68.70331973388181 -125.66556372247982 " stroke="#191919" stroke-width="0.35 px" style="stroke-width:0.35;stroke-miterlimit:4;stroke-dasharray:none;stroke-linecap:square;fill:none;fill-opacity:1;fill-rule: evenodd"/>
<path id="Shape2DView001_nwe0024"  d="M 80.45601631542266 -113.79453386663371 A 2 1.98548 74.1181 0 0 78.8005 -115.772" stroke="#191919" stroke-width="0.35 px" style="stroke-width:0.35;stroke-miterlimit:4;stroke-dasharray:none;stroke-linecap:square;fill:none;fill-opacity:1;fill-rule: evenodd"/>
<path id="Shape2DView001_nwe0025"  d="M 70.66210249747195 -123.99225093278748 A 2 1.98548 74.1181 0 0 68.7033 -125.666" stroke="#191919" stroke-width="0.35 px" style="stroke-width:0.35;stroke-miterlimit:4;stroke-dasharray:none;stroke-linecap:square;fill:none;fill-opacity:1;fill-rule: evenodd"/>
<path id="Shape2DView001_nwe0026"  d="M 70.66210249747195 -123.99225093278747 A 10 9.92739 74.1181 0 0 78.8005 -115.772" stroke="#191919" stroke-width="0.35 px" style="stroke-width:0.35;stroke-miterlimit:4;stroke-dasharray:none;stroke-linecap:square;fill:none;fill-opacity:1;fill-rule: evenodd"/>
<path id="Shape2DView001_nwe0027"  d="M 77.82234142990848 -125.77881727009378 A 2.8 2.779667849296856 74.11805557373076 1 1 77.05610425942521 -125.67347264037188 A 2.8 2.779667849296856 74.11805557373076 1 1 77.82234142990848 -125.77881727009378 " stroke="#191919" stroke-width="0.35 px" style="stroke-width:0.35;stroke-miterlimit:4;stroke-dasharray:none;stroke-linecap:square;fill:none;fill-opacity:1;fill-rule: evenodd"/>
<title>b'Shape2DView001'</title>
</g>
</svg>